HIERARCHY
ROOT hip
{
  OFFSET 0 0 0
  CHANNELS 6 Xposition Yposition Zposition Zrotation Yrotation Xrotation
  JOINT abdomen
  {
    OFFSET 0 20.6881 -0.73152
    CHANNELS 3 Zrotation Xrotation Yrotation
    JOINT chest
    {
      OFFSET 0 11.7043 -0.48768
      CHANNELS 3 Zrotation Xrotation Yrotation
      JOINT neck
      {
        OFFSET 0 22.1894 -2.19456
        CHANNELS 3 Zrotation Xrotation Yrotation
        JOINT head
        {
          OFFSET -0.24384 7.07133 1.2192
          CHANNELS 3 Zrotation Xrotation Yrotation
          JOINT leftEye
          {
            OFFSET 4.14528 8.04674 8.04672
            CHANNELS 3 Zrotation Xrotation Yrotation
            End Site
            {
              OFFSET 1 0 0
            }
          }
          JOINT rightEye
          {
            OFFSET -3.6576 8.04674 8.04672
            CHANNELS 3 Zrotation Xrotation Yrotation
            End Site
            {
              OFFSET 1 0 0
            }
          }
        }
      }
      JOINT rCollar
      {
        OFFSET -2.68224 19.2634 -4.8768
        CHANNELS 3 Zrotation Xrotation Yrotation
        JOINT rShldr
        {
          OFFSET -8.77824 -1.95073 1.46304
          CHANNELS 3 Zrotation Xrotation Yrotation
          JOINT rForeArm
          {
            OFFSET -28.1742 -1.7115 0.48768
            CHANNELS 3 Zrotation Xrotation Yrotation
            JOINT rHand
            {
              OFFSET -22.5879 0.773209 7.07136
              CHANNELS 3 Zrotation Xrotation Yrotation
              JOINT rThumb1
              {
                OFFSET -1.2192 -0.487915 3.41376
                CHANNELS 3 Zrotation Xrotation Yrotation
                JOINT rThumb2
                {
                  OFFSET -3.37035 -0.52449 3.41376
                  CHANNELS 3 Zrotation Xrotation Yrotation
                  End Site
                  {
                    OFFSET -1.78271 -1.18214 1.43049
                  }
                }
              }
              JOINT rIndex1
              {
                OFFSET -7.75947 0.938293 5.60832
                CHANNELS 3 Zrotation Xrotation Yrotation
                JOINT rIndex2
                {
                  OFFSET -2.54057 -0.884171 1.56538
                  CHANNELS 3 Zrotation Xrotation Yrotation
                  End Site
                  {
                    OFFSET -1.62519 -0.234802 1.16502
                  }
                }
              }
              JOINT rMid1
              {
                OFFSET -8.24714 1.18213 3.41376
                CHANNELS 3 Zrotation Xrotation Yrotation
                JOINT rMid2
                {
                  OFFSET -3.10165 -0.590103 1.0647
                  CHANNELS 3 Zrotation Xrotation Yrotation
                  End Site
                  {
                    OFFSET -2.48547 -0.328903 0.83742
                  }
                }
              }
              JOINT rRing1
              {
                OFFSET -8.82822 0.546677 1.51678
                CHANNELS 3 Zrotation Xrotation Yrotation
                JOINT rRing2
                {
                  OFFSET -2.60934 -0.819778 -0.0198488
                  CHANNELS 3 Zrotation Xrotation Yrotation
                  End Site
                  {
                    OFFSET -2.33842 -0.294052 0.168128
                  }
                }
              }
              JOINT rPinky1
              {
                OFFSET -8.27202 -0.0477905 -0.4584
                CHANNELS 3 Zrotation Xrotation Yrotation
                JOINT rPinky2
                {
                  OFFSET -1.82734 -0.647385 -0.700984
                  CHANNELS 3 Zrotation Xrotation Yrotation
                  End Site
                  {
                    OFFSET -1.69225 -0.51767 -0.607171
                  }
                }
              }
            }
          }
        }
      }
      JOINT lCollar
      {
        OFFSET 2.68224 19.2634 -4.8768
        CHANNELS 3 Zrotation Xrotation Yrotation
        JOINT lShldr
        {
          OFFSET 8.77824 -1.95073 1.46304
          CHANNELS 3 Zrotation Xrotation Yrotation
          JOINT lForeArm
          {
            OFFSET 28.1742 -1.7115 0.48768
            CHANNELS 3 Zrotation Xrotation Yrotation
            JOINT lHand
            {
              OFFSET 22.5879 0.773209 7.07136
              CHANNELS 3 Zrotation Xrotation Yrotation
              JOINT lThumb1
              {
                OFFSET 1.2192 -0.487915 3.41376
                CHANNELS 3 Zrotation Xrotation Yrotation
                JOINT lThumb2
                {
                  OFFSET 3.37035 -0.52449 3.41376
                  CHANNELS 3 Zrotation Xrotation Yrotation
                  End Site
                  {
                    OFFSET 1.78271 -1.18214 1.43049
                  }
                }
              }
              JOINT lIndex1
              {
                OFFSET 7.75947 0.938293 5.60832
                CHANNELS 3 Zrotation Xrotation Yrotation
                JOINT lIndex2
                {
                  OFFSET 2.54057 -0.884171 1.56538
                  CHANNELS 3 Zrotation Xrotation Yrotation
                  End Site
                  {
                    OFFSET 1.62519 -0.234802 1.16502
                  }
                }
              }
              JOINT lMid1
              {
                OFFSET 8.24714 1.18213 3.41376
                CHANNELS 3 Zrotation Xrotation Yrotation
                JOINT lMid2
                {
                  OFFSET 3.10165 -0.590103 1.0647
                  CHANNELS 3 Zrotation Xrotation Yrotation
                  End Site
                  {
                    OFFSET 2.48547 -0.328903 0.83742
                  }
                }
              }
              JOINT lRing1
              {
                OFFSET 8.82822 0.546677 1.51678
                CHANNELS 3 Zrotation Xrotation Yrotation
                JOINT lRing2
                {
                  OFFSET 2.60934 -0.819778 -0.0198488
                  CHANNELS 3 Zrotation Xrotation Yrotation
                  End Site
                  {
                    OFFSET 2.33842 -0.294052 0.168128
                  }
                }
              }
              JOINT lPinky1
              {
                OFFSET 8.27202 -0.0477905 -0.4584
                CHANNELS 3 Zrotation Xrotation Yrotation
                JOINT lPinky2
                {
                  OFFSET 1.82734 -0.647385 -0.700984
                  CHANNELS 3 Zrotation Xrotation Yrotation
                  End Site
                  {
                    OFFSET 1.69225 -0.51767 -0.607171
                  }
                }
              }
            }
          }
        }
      }
    }
  }
  JOINT rButtock
  {
    OFFSET -8.77824 4.35084 1.2192
    CHANNELS 3 Zrotation Xrotation Yrotation
    JOINT rThigh
    {
      OFFSET 0 -1.70687 -2.19456
      CHANNELS 3 Zrotation Xrotation Yrotation
      JOINT rShin
      {
        OFFSET 0 -36.8199 0.73152
        CHANNELS 3 Zrotation Xrotation Yrotation
        JOINT rFoot
        {
          OFFSET 0.73152 -45.1104 -5.12064
          CHANNELS 3 Zrotation Xrotation Yrotation
          End Site
          {
            OFFSET -1.1221 -3.69964 12.103
          }
        }
      }
    }
  }
  JOINT lButtock
  {
    OFFSET 8.77824 4.35084 1.2192
    CHANNELS 3 Zrotation Xrotation Yrotation
    JOINT lThigh
    {
      OFFSET 0 -1.70687 -2.19456
      CHANNELS 3 Zrotation Xrotation Yrotation
      JOINT lShin
      {
        OFFSET 0 -36.8199 0.73152
        CHANNELS 3 Zrotation Xrotation Yrotation
        JOINT lFoot
        {
          OFFSET -0.73152 -45.1104 -5.12064
          CHANNELS 3 Zrotation Xrotation Yrotation
          End Site
          {
            OFFSET 1.1221 -3.69964 12.103
          }
        }
      }
    }
  }
}
MOTION
Frames:	4
Frame Time:	0.03333
0.4667299799621105 64.42170143127441 -1.5610000118613243 -359.9939994514431 36.28670160729714 -714.9950213365801 -3.308589951174486 17.117900352608704 -1.7551899963981423 4.02009011668448 -12.78180000802936 -0.07869469820306965 -7.122230129675925 19.82710000953614 -12.750800340707611 11.300500170461907 -37.813699679280205 -22.33809952958085 -0.0 0.0 0.0 -0.0 0.0 0.0 -1.6763999729317418e-14 6.679179997139944e-14 2.1627800952799706e-13 45.16069852793656 -0.9136940420664695 32.50189912780173 -26.92500015161483 -26.09049959165372 61.0248988753692 -1.7266800397505686 34.536899349493666 5.550569877596964 1.2702500280752332e-09 1.9701299924156084e-10 -1.0958299996211146e-09 2.16705005982507e-09 2.198210053431702e-10 -1.9224099438982676e-09 1.2702500280752332e-09 1.970140055889405e-10 -1.0958299996211146e-09 7.730910121524428 5.474879855648998 0.41731399283890674 1.2702500280752332e-09 1.9701200531822286e-10 -1.0958299996211146e-09 2.90554006136521 0.9651829962377875 0.10290200252939893 1.2702500280752332e-09 1.9701000504750524e-10 -1.0958299996211146e-09 10.278599710243157 0.7318009818271524 0.025912300303053633 1.2702399894495197e-09 1.9701299924156084e-10 -1.0958199609954013e-09 2.221669932038622 -0.7334870246959406 -0.20891999872313852 -1.663289970016848e-14 6.6792000163478e-14 2.162279979069148e-13 -37.91419908272778 78.33660072303515 -40.27209991252665 27.333500105494956 -43.05209960284315 -89.58890024852427 45.308599444224015 -80.00499737121582 52.88789985674167 -1.0568399773503885e-09 -7.756449712093223e-09 -1.2566400277058843e-11 -1.804209996347701e-09 -1.3508200579292013e-08 -8.390779711700891e-11 -1.0568399773503885e-09 -7.756449712093223e-09 -1.2560000342565527e-11 -7.730910121524428 5.474879855648998 -0.41731399283890674 -1.0568399773503885e-09 -7.756449712093223e-09 -1.2563200309812185e-11 -2.90554006136521 0.9651829962377875 -0.10290200252939893 -1.0568399773503885e-09 -7.756449712093223e-09 -1.2564000107498197e-11 -10.278599710243157 0.7318009818271524 -0.025912300303053633 -1.0568399773503885e-09 -7.756460048895938e-09 -1.25696002443055e-11 -2.221669932038622 -0.7334870246959406 0.20891999872313852 -2.0321699793705798e-16 0.0 -3.882510030490358e-19 -47.37479997004457 -61.484297398944264 -41.19160046916128 -1.6677100007256769 66.32229797298271 1.8325600314385195 -0.3809659939123467 2.68354994871651 -0.07458219728110134 2.0321699793705798e-16 0.0 3.882510030490358e-19 27.143499610710833 -45.34260012591234 26.254700754395415 15.009800031324703 86.46580308072511 -16.208499938209233 6.5208400841059415 -8.304419761789243 18.259300094998704
1.0630999691784382 64.63490128517151 -3.295000083744526 -359.5140010773312 34.586701673826816 -714.7879846424587 -3.288120087675369 17.429399667443597 -1.6108100426278278 3.7553400316237378 -12.647100139860246 -0.06720890135036679 -6.985839789687232 19.728600143968094 -12.276200377361045 11.366299651604871 -38.358598510885486 -21.32569986249759 -0.0 0.0 0.0 -0.0 0.0 0.0 6.077400182393677e-14 -3.176080085186189e-14 -1.6023599639658673e-13 44.67659862522815 -0.5005539885015281 32.61229889045123 -26.772299319888152 -25.606099160621834 60.25629768806767 -1.6920200313639273 34.24159953582275 5.489309910931119 -4.290319784459795e-10 -7.299599732720242e-11 3.911370112128479e-10 -7.290869979802546e-10 -6.988919796943621e-11 6.832030240451226e-10 -4.290289966759656e-10 -7.299760002858488e-11 3.911290101299774e-10 7.730910121524428 5.474879855648998 0.41731399283890674 -4.290340159888223e-10 -7.301089996525092e-11 3.911319918999912e-10 2.90554006136521 0.9651829962377875 0.10290200252939893 -4.290289966759656e-10 -7.300109739633032e-11 3.911389990595238e-10 10.278599710243157 0.7318009818271524 0.025912300303053633 -4.2904102314835487e-10 -7.299840137927611e-11 3.911500067604917e-10 2.221669932038622 -0.7334870246959406 -0.20891999872313852 6.088310044032975e-14 -3.1750399963416286e-14 -1.6023900534419188e-13 -37.176200558002485 77.08009863275208 -41.68179973079851 27.478699681965672 -42.557300208799916 -88.66429754057964 41.76760056715221 -79.4970976743445 49.28959910762804 -6.433499781400481e-10 -1.4742500102056328e-09 8.099280011538501e-10 -1.1517000207250378e-09 -3.0047799354997625e-09 1.3334299577604977e-09 -6.433530096062289e-10 -1.4742500102056328e-09 8.099369961600586e-10 -7.730910121524428 5.474879855648998 -0.41731399283890674 -6.433499781400481e-10 -1.4742399715799195e-09 8.099309829238639e-10 -2.90554006136521 0.9651829962377875 -0.10290200252939893 -6.433520156828909e-10 -1.4742500102056328e-09 8.099280011538501e-10 -10.278599710243157 0.7318009818271524 -0.025912300303053633 -6.433440146000204e-10 -1.4742500102056328e-09 8.099219879176554e-10 -2.221669932038622 -0.7334870246959406 0.20891999872313852 -2.0321699793705798e-16 0.0 -3.882510030490358e-19 -45.32410055854536 -62.23240118854659 -37.51129988396706 -1.441049959675392 63.93460044292966 1.5739799550758264 -0.3410820113885564 4.447210020015703 0.3088489879935175 2.0321699793705798e-16 0.0 3.882510030490358e-19 23.253599302909144 -46.29309949609507 22.196499462802734 15.468500168057128 86.54269735040111 -16.62370030766514 6.399129955077722 -7.3071498174912035 18.76049937629424
1.7872799653559923 64.91050124168396 -5.173400044441223 -358.8590132566837 32.75800048582594 -714.5770137593753 -3.413359930400604 17.859800622897367 -1.4408700268794445 3.484440001545634 -12.487599854814816 -0.0579014012343691 -6.827869893902709 19.64029945837817 -11.7579999014477 11.416800362780652 -38.97050149824859 -20.22510025511466 -0.0 0.0 0.0 -0.0 0.0 0.0 9.777689898379642e-14 -8.270330296662791e-14 -4.357359913605018e-13 44.284098389478785 -0.0295206011961641 32.58200017129305 -26.64749981092097 -25.22489947285425 59.64240028546693 -1.6523700361800628 33.896900378979716 5.418430049706135 -1.9262500661067997e-09 -2.6722501108712384e-10 1.6309799923061188e-09 -3.2833599492171295e-09 -2.5187398937278986e-10 2.8587600737197694e-09 -1.9262500661067997e-09 -2.6722799285713773e-10 1.6309699536804055e-09 7.730910121524428 5.474879855648998 0.41731399283890674 -1.9262500661067997e-09 -2.6725599664718467e-10 1.6309699536804055e-09 2.90554006136521 0.9651829962377875 0.10290200252939893 -1.9262500661067997e-09 -2.6723099947523504e-10 1.6309799923061188e-09 10.278599710243157 0.7318009818271524 0.025912300303053633 -1.9262500661067997e-09 -2.6722901162855914e-10 1.630990030931832e-09 2.221669932038622 -0.7334870246959406 -0.20891999872313852 9.783349874419157e-14 -8.268509762033147e-14 -4.357359913605018e-13 -35.604300822415745 75.49229821677757 -44.169501475584305 27.681600696544656 -41.8426984970765 -87.29220132878329 38.01419988236593 -78.84710272198024 45.4682004745597 -3.2888500835590046e-10 3.1517100322726564e-09 1.5205500404500337e-09 -6.61052001269903e-10 4.665239992186697e-09 2.555539905315769e-09 -3.288900028206737e-10 3.1517100322726564e-09 1.5205700183091268e-09 -7.730910121524428 5.474879855648998 -0.41731399283890674 -3.2888398958447905e-10 3.151719971506036e-09 1.5205599796834133e-09 -2.90554006136521 0.9651829962377875 -0.10290200252939893 -3.2888699620257636e-10 3.1517100322726564e-09 1.5205500404500337e-09 -10.278599710243157 0.7318009818271524 -0.025912300303053633 -3.2887998904304376e-10 3.1517100322726564e-09 1.5205400018243204e-09 -2.221669932038622 -0.7334870246959406 0.20891999872313852 -2.0321699793705798e-16 0.0 -3.882510030490358e-19 -42.754798543745416 -62.76559990610363 -32.896800175044355 -1.220620011643511 61.08979933286267 1.3167800038122992 -0.33476499354079375 6.411659937110111 0.5801129924491887 2.0321699793705798e-16 0.0 3.882510030490358e-19 18.206999628976625 -46.95849994013229 17.048799328775686 14.107900018407554 86.21760083647601 -15.20940035698728 6.224739857641665 -6.0977299287043385 19.44489969905515
2.612829999998212 65.28159976005554 -7.141900062561035 -358.0410024809263 30.796400892049544 -714.442978127103 -3.637120129261395 18.559799390175293 -1.229880040610756 3.235789953019082 -12.370100110523087 -0.04298950078569785 -6.6488600272667835 19.53250029025515 -11.21829969757445 11.252999619879052 -39.6351984328013 -19.146900253114786 -0.0 0.0 0.0 -0.0 0.0 0.0 1.620839998059817e-14 -1.1391400025229125e-13 -2.3630799135848694e-13 43.84709947128678 0.5075199810421478 32.42550004684055 -26.557100549708558 -24.957900548009285 59.224700066774794 -1.6137699691376763 33.55669890170513 5.348970014054868 -8.347600327408757e-10 2.538029957870975e-09 1.5321000259911008e-09 -1.4024400429615522e-09 4.511699907647052e-09 2.6617300783891295e-09 -8.347569515785281e-10 2.538020018637595e-09 1.5320899873653875e-09 7.730910121524428 5.474879855648998 0.41731399283890674 -8.347610266642137e-10 2.5379900021527887e-09 1.5321000259911008e-09 2.90554006136521 0.9651829962377875 0.10290200252939893 -8.347569515785281e-10 2.538020018637595e-09 1.5321000259911008e-09 10.278599710243157 0.7318009818271524 0.025912300303053633 -8.347640084342276e-10 2.538020018637595e-09 1.5321099652244804e-09 2.221669932038622 -0.7334870246959406 -0.20891999872313852 1.61975001285628e-14 -1.1389299828332146e-13 -2.3640199670544123e-13 -33.433099798484584 73.4775973172989 -47.605001250736095 27.93229937493539 -40.77929951500804 -85.31559922449496 35.0939012763082 -78.24610071653247 42.488598751033344 4.853890219855019e-10 5.246080044363598e-09 7.831750139315542e-10 7.805939938075466e-10 8.747310175892322e-09 1.3531199766547678e-09 4.853859905193211e-10 5.246089983596978e-09 7.831879846311145e-10 -7.730910121524428 5.474879855648998 -0.41731399283890674 4.853910098321778e-10 5.246099922830358e-09 7.83177995701568e-10 -2.90554006136521 0.9651829962377875 -0.10290200252939893 4.853900159088399e-10 5.246080044363598e-09 7.831740200082162e-10 -10.278599710243157 0.7318009818271524 -0.025912300303053633 4.853920037555158e-10 5.246089983596978e-09 7.831670128486836e-10 -2.221669932038622 -0.7334870246959406 0.20891999872313852 -2.0321699793705798e-16 0.0 -3.882510030490358e-19 -39.38099928246094 -62.88600248079262 -26.920999368308497 -1.0060800345537082 57.60610232783268 1.056630051157561 -0.351025993087728 8.82924979006573 0.5788809970776476 2.0321699793705798e-16 0.0 3.882510030490358e-19 11.852699620516281 -47.15629880340128 10.524099760901864 11.394599686657171 85.36860149245426 -12.417699698848907 5.8482401937966975 -4.264269806399258 20.407599494642817
